<mxfile host="app.diagrams.net" modified="2023-12-26T00:39:30.306Z" agent="Mozilla/5.0 (Windows NT 10.0; Win64; x64) AppleWebKit/537.36 (KHTML, like Gecko) Chrome/120.0.0.0 Safari/537.36" etag="Jqxk2ONfqdq5vF2NzDJA" version="22.1.11" type="device">
  <diagram id="C5RBs43oDa-KdzZeNtuy" name="Page-1">
    <mxGraphModel dx="954" dy="558" grid="1" gridSize="10" guides="1" tooltips="1" connect="1" arrows="1" fold="1" page="1" pageScale="1" pageWidth="827" pageHeight="1169" math="0" shadow="0">
      <root>
        <mxCell id="WIyWlLk6GJQsqaUBKTNV-0" />
        <mxCell id="WIyWlLk6GJQsqaUBKTNV-1" parent="WIyWlLk6GJQsqaUBKTNV-0" />
        <mxCell id="KhpP47Ji-j5tjHfsyE3r-16" value="" style="edgeStyle=orthogonalEdgeStyle;rounded=0;orthogonalLoop=1;jettySize=auto;html=1;" edge="1" parent="WIyWlLk6GJQsqaUBKTNV-1" source="KhpP47Ji-j5tjHfsyE3r-4" target="KhpP47Ji-j5tjHfsyE3r-15">
          <mxGeometry relative="1" as="geometry" />
        </mxCell>
        <mxCell id="KhpP47Ji-j5tjHfsyE3r-4" value="开始" style="strokeWidth=2;html=1;shape=mxgraph.flowchart.start_1;whiteSpace=wrap;" vertex="1" parent="WIyWlLk6GJQsqaUBKTNV-1">
          <mxGeometry x="190" y="100" width="100" height="60" as="geometry" />
        </mxCell>
        <mxCell id="KhpP47Ji-j5tjHfsyE3r-18" value="" style="edgeStyle=orthogonalEdgeStyle;rounded=0;orthogonalLoop=1;jettySize=auto;html=1;" edge="1" parent="WIyWlLk6GJQsqaUBKTNV-1" source="KhpP47Ji-j5tjHfsyE3r-15" target="KhpP47Ji-j5tjHfsyE3r-17">
          <mxGeometry relative="1" as="geometry" />
        </mxCell>
        <mxCell id="KhpP47Ji-j5tjHfsyE3r-15" value="输入用户名" style="whiteSpace=wrap;html=1;strokeWidth=2;" vertex="1" parent="WIyWlLk6GJQsqaUBKTNV-1">
          <mxGeometry x="190" y="190" width="100" height="30" as="geometry" />
        </mxCell>
        <mxCell id="KhpP47Ji-j5tjHfsyE3r-20" value="" style="edgeStyle=orthogonalEdgeStyle;rounded=0;orthogonalLoop=1;jettySize=auto;html=1;" edge="1" parent="WIyWlLk6GJQsqaUBKTNV-1" source="KhpP47Ji-j5tjHfsyE3r-17" target="KhpP47Ji-j5tjHfsyE3r-19">
          <mxGeometry relative="1" as="geometry" />
        </mxCell>
        <mxCell id="KhpP47Ji-j5tjHfsyE3r-17" value="游戏初始化" style="whiteSpace=wrap;html=1;strokeWidth=2;" vertex="1" parent="WIyWlLk6GJQsqaUBKTNV-1">
          <mxGeometry x="190" y="250" width="100" height="30" as="geometry" />
        </mxCell>
        <mxCell id="KhpP47Ji-j5tjHfsyE3r-22" value="" style="edgeStyle=orthogonalEdgeStyle;rounded=0;orthogonalLoop=1;jettySize=auto;html=1;" edge="1" parent="WIyWlLk6GJQsqaUBKTNV-1" source="KhpP47Ji-j5tjHfsyE3r-19" target="KhpP47Ji-j5tjHfsyE3r-21">
          <mxGeometry relative="1" as="geometry" />
        </mxCell>
        <mxCell id="KhpP47Ji-j5tjHfsyE3r-19" value="地图随机生成一个2" style="whiteSpace=wrap;html=1;strokeWidth=2;" vertex="1" parent="WIyWlLk6GJQsqaUBKTNV-1">
          <mxGeometry x="190" y="310" width="100" height="30" as="geometry" />
        </mxCell>
        <mxCell id="KhpP47Ji-j5tjHfsyE3r-24" value="" style="edgeStyle=orthogonalEdgeStyle;rounded=0;orthogonalLoop=1;jettySize=auto;html=1;" edge="1" parent="WIyWlLk6GJQsqaUBKTNV-1" source="KhpP47Ji-j5tjHfsyE3r-21" target="KhpP47Ji-j5tjHfsyE3r-23">
          <mxGeometry relative="1" as="geometry" />
        </mxCell>
        <mxCell id="KhpP47Ji-j5tjHfsyE3r-21" value="获取键盘操作" style="whiteSpace=wrap;html=1;strokeWidth=2;" vertex="1" parent="WIyWlLk6GJQsqaUBKTNV-1">
          <mxGeometry x="190" y="370" width="100" height="30" as="geometry" />
        </mxCell>
        <mxCell id="KhpP47Ji-j5tjHfsyE3r-26" value="" style="edgeStyle=orthogonalEdgeStyle;rounded=0;orthogonalLoop=1;jettySize=auto;html=1;" edge="1" parent="WIyWlLk6GJQsqaUBKTNV-1" source="KhpP47Ji-j5tjHfsyE3r-23" target="KhpP47Ji-j5tjHfsyE3r-25">
          <mxGeometry relative="1" as="geometry" />
        </mxCell>
        <mxCell id="KhpP47Ji-j5tjHfsyE3r-23" value="地图数值移动与合并" style="whiteSpace=wrap;html=1;strokeWidth=2;" vertex="1" parent="WIyWlLk6GJQsqaUBKTNV-1">
          <mxGeometry x="190" y="430" width="100" height="30" as="geometry" />
        </mxCell>
        <mxCell id="KhpP47Ji-j5tjHfsyE3r-31" value="" style="edgeStyle=orthogonalEdgeStyle;rounded=0;orthogonalLoop=1;jettySize=auto;html=1;" edge="1" parent="WIyWlLk6GJQsqaUBKTNV-1" source="KhpP47Ji-j5tjHfsyE3r-25" target="KhpP47Ji-j5tjHfsyE3r-30">
          <mxGeometry relative="1" as="geometry" />
        </mxCell>
        <mxCell id="KhpP47Ji-j5tjHfsyE3r-25" value="地图更新" style="whiteSpace=wrap;html=1;strokeWidth=2;" vertex="1" parent="WIyWlLk6GJQsqaUBKTNV-1">
          <mxGeometry x="190" y="490" width="100" height="30" as="geometry" />
        </mxCell>
        <mxCell id="KhpP47Ji-j5tjHfsyE3r-38" value="" style="edgeStyle=none;rounded=0;orthogonalLoop=1;jettySize=auto;html=1;" edge="1" parent="WIyWlLk6GJQsqaUBKTNV-1" source="KhpP47Ji-j5tjHfsyE3r-30" target="KhpP47Ji-j5tjHfsyE3r-37">
          <mxGeometry relative="1" as="geometry" />
        </mxCell>
        <mxCell id="KhpP47Ji-j5tjHfsyE3r-30" value="游戏是否结束？" style="rhombus;whiteSpace=wrap;html=1;strokeWidth=2;" vertex="1" parent="WIyWlLk6GJQsqaUBKTNV-1">
          <mxGeometry x="200" y="545" width="80" height="80" as="geometry" />
        </mxCell>
        <mxCell id="KhpP47Ji-j5tjHfsyE3r-37" value="游戏结束" style="strokeWidth=2;html=1;shape=mxgraph.flowchart.start_1;whiteSpace=wrap;" vertex="1" parent="WIyWlLk6GJQsqaUBKTNV-1">
          <mxGeometry x="190" y="650" width="100" height="50" as="geometry" />
        </mxCell>
        <mxCell id="KhpP47Ji-j5tjHfsyE3r-39" value="" style="endArrow=classic;html=1;rounded=0;exitX=1;exitY=0.5;exitDx=0;exitDy=0;entryX=1;entryY=0.5;entryDx=0;entryDy=0;strokeWidth=2;" edge="1" parent="WIyWlLk6GJQsqaUBKTNV-1" source="KhpP47Ji-j5tjHfsyE3r-30" target="KhpP47Ji-j5tjHfsyE3r-19">
          <mxGeometry width="50" height="50" relative="1" as="geometry">
            <mxPoint x="530" y="510" as="sourcePoint" />
            <mxPoint x="580" y="460" as="targetPoint" />
            <Array as="points">
              <mxPoint x="490" y="585" />
              <mxPoint x="490" y="325" />
            </Array>
          </mxGeometry>
        </mxCell>
        <mxCell id="KhpP47Ji-j5tjHfsyE3r-40" value="否" style="text;html=1;strokeColor=none;fillColor=none;align=center;verticalAlign=middle;whiteSpace=wrap;rounded=0;" vertex="1" parent="WIyWlLk6GJQsqaUBKTNV-1">
          <mxGeometry x="310" y="555" width="60" height="30" as="geometry" />
        </mxCell>
      </root>
    </mxGraphModel>
  </diagram>
</mxfile>
